<svg width="34" height="34" viewBox="0 0 34 34" fill="none" xmlns="http://www.w3.org/2000/svg">
<rect opacity="0.2" width="34" height="34" rx="7" fill="#DCDCDC"/>
<path d="M24.5288 11.5615C23.559 11.1547 22.5885 11 21.6186 11C18.5394 10.9998 15.4604 12.5585 12.3812 12.5585C11.609 12.5585 10.8372 12.4605 10.065 12.2155C9.97823 12.188 9.89124 12.175 9.80624 12.175C9.37599 12.175 9 12.508 9 12.9702V20.9016C9 21.2173 9.18075 21.5166 9.47099 21.6381C10.4407 22.0451 11.4112 22.1998 12.3812 22.1998C15.4604 22.1998 18.5396 20.6411 21.6188 20.6411C22.391 20.6411 23.1628 20.7391 23.935 20.9841C24.0218 21.0116 24.1088 21.0246 24.1938 21.0246C24.624 21.0246 25 20.6916 25 20.2294V12.2982C24.9998 11.9822 24.819 11.6832 24.5288 11.5615ZM10.2 13.5055C10.703 13.6315 11.228 13.6947 11.768 13.7287C11.621 14.4634 10.975 15.0172 10.2 15.0172V13.5055ZM10.2 20.6303V19.4359C11.0592 19.4359 11.7545 20.1176 11.7927 20.9708C11.2295 20.9256 10.703 20.8131 10.2 20.6303ZM16.9999 18.9999C15.8951 18.9999 14.9999 17.9251 14.9999 16.5999C14.9999 15.2744 15.8954 14.1999 16.9999 14.1999C18.1044 14.1999 18.9998 15.2744 18.9998 16.5999C18.9998 17.9256 18.1041 18.9999 16.9999 18.9999ZM23.7998 19.6944C23.3618 19.5846 22.907 19.5231 22.4418 19.4834C22.5885 18.8314 23.1293 18.3364 23.7998 18.2514V19.6944ZM23.7998 13.7917C23.0275 13.694 22.4283 13.0492 22.4045 12.253C22.893 12.3072 23.3568 12.4087 23.7998 12.5695V13.7917Z" fill="#1BB14C"/>
</svg>
