<svg width="15" height="15" viewBox="0 0 15 15" fill="none" xmlns="http://www.w3.org/2000/svg">
<path fill-rule="evenodd" clip-rule="evenodd" d="M6.44767 0.435918L5.31767 1.56492C5.22643 1.6562 5.10274 1.70762 4.97367 1.70792H3.19567C2.37367 1.70792 1.70767 2.37392 1.70767 3.19592V4.97392C1.70767 5.10392 1.65567 5.22692 1.56467 5.31892L0.434674 6.44792C0.155727 6.72696 -0.000976563 7.10536 -0.000976562 7.49992C-0.000976563 7.89447 0.155727 8.27288 0.434674 8.55192L1.56467 9.68192C1.65596 9.77316 1.70737 9.89685 1.70767 10.0259V11.8039C1.70767 12.6259 2.37367 13.2919 3.19567 13.2919H4.97367C5.10367 13.2919 5.22667 13.3439 5.31867 13.4349L6.44767 14.5649C6.72671 14.8439 7.10512 15.0006 7.49967 15.0006C7.89423 15.0006 8.27263 14.8439 8.55167 14.5649L9.68167 13.4349C9.77292 13.3436 9.89661 13.2922 10.0257 13.2919H11.8037C12.6257 13.2919 13.2917 12.6259 13.2917 11.8039V10.0259C13.2917 9.89592 13.3437 9.77292 13.4347 9.68092L14.5647 8.55192C14.8436 8.27288 15.0003 7.89447 15.0003 7.49992C15.0003 7.10536 14.8436 6.72696 14.5647 6.44792L13.4347 5.31792C13.3434 5.22667 13.292 5.10298 13.2917 4.97392V3.19592C13.2917 2.37392 12.6257 1.70792 11.8037 1.70792H10.0257C9.89626 1.70788 9.77216 1.65644 9.68067 1.56492L8.55167 0.434918C8.27263 0.155971 7.89423 -0.000732422 7.49967 -0.000732422C7.10512 -0.000732422 6.72671 0.155971 6.44767 0.434918V0.435918ZM4.64567 9.64592L9.64567 4.64592L10.3537 5.35392L5.35367 10.3539L4.64567 9.64592ZM4.99967 4.99992V5.99992H5.99967V4.99992H4.99967ZM8.99967 9.99992H9.99967V8.99992H8.99967V9.99992Z" fill="#E9C496"/>
</svg>
