<svg width="10" height="13" viewBox="0 0 10 13" fill="none" xmlns="http://www.w3.org/2000/svg">
<path d="M9.94885 4.97443C9.94885 8.84342 4.97443 12.1597 4.97443 12.1597C4.97443 12.1597 0 8.84342 0 4.97443C1.96591e-08 3.65513 0.52409 2.38986 1.45698 1.45698C2.38986 0.52409 3.65513 0 4.97443 0C6.29373 0 7.55899 0.52409 8.49188 1.45698C9.42476 2.38986 9.94885 3.65513 9.94885 4.97443Z" fill="#944E6C"/>
<path d="M4.97443 6.63257C5.89019 6.63257 6.63257 5.89019 6.63257 4.97443C6.63257 4.05866 5.89019 3.31628 4.97443 3.31628C4.05866 3.31628 3.31628 4.05866 3.31628 4.97443C3.31628 5.89019 4.05866 6.63257 4.97443 6.63257Z" fill="white"/>
</svg>
