<svg width="18" height="23" viewBox="0 0 18 23" fill="none" xmlns="http://www.w3.org/2000/svg">
<path d="M6.55907 14.4235C8.18332 14.2802 9.81694 14.2802 11.4412 14.4235L11.9598 14.4674C12.6691 14.5373 13.3734 14.6468 14.0665 14.7948C15.8332 15.1587 17.116 15.8043 17.6839 17.0018C18.1057 17.8928 18.1057 18.9271 17.6837 19.8185C17.1144 21.019 15.815 21.67 14.0797 22.0124L13.554 22.1215C12.8513 22.2564 12.1426 22.3485 11.4387 22.3966C10.1179 22.5091 8.79084 22.5296 7.51077 22.4592C7.36967 22.4592 7.27496 22.4587 7.19151 22.4567L7.02922 22.4507C6.83191 22.4406 6.65114 22.4199 6.57529 22.3977C5.68471 22.3372 4.80006 22.2083 3.95141 22.0168L3.66354 21.9567C2.05655 21.5996 0.866452 20.9555 0.315961 19.8172C0.107478 19.3755 -0.000359473 18.8927 0.000266412 18.4081C-0.00154521 17.9199 0.107172 17.4377 0.32341 16.9874C0.896725 15.8358 2.24371 15.1429 3.92741 14.7961C4.79975 14.6091 5.68414 14.4842 6.55907 14.4235ZM11.2993 16.0459C9.76945 15.9109 8.2308 15.9109 6.68607 16.0471C5.87233 16.1037 5.06359 16.2179 4.25958 16.3902C3.01436 16.6467 2.06231 17.1365 1.7791 17.7051C1.67481 17.9224 1.62108 18.1607 1.62197 18.4061C1.62167 18.6528 1.67611 18.8966 1.77803 19.1126C2.06931 19.7148 2.96769 20.1649 4.28399 20.4229L4.68057 20.5069C5.34476 20.6386 6.02883 20.7293 6.78905 20.7867C6.88506 20.806 6.98865 20.8179 7.11158 20.8241L7.55438 20.8317C8.80333 20.8993 10.0554 20.8799 11.315 20.7728C12.1268 20.7172 12.9333 20.6001 13.7472 20.4185L14.0003 20.3649C15.1563 20.1028 15.9561 19.6738 16.2193 19.1187C16.4316 18.6702 16.4316 18.1497 16.2195 17.7016C15.9378 17.1075 15.0472 16.6593 13.735 16.389C12.9368 16.2186 12.1276 16.1043 11.3135 16.047L11.2993 16.0459ZM9.00508 0C12.3059 0 14.9817 2.68722 14.9817 6.00207C14.9817 9.31692 12.3059 12.0041 9.00508 12.0041C5.7043 12.0041 3.02849 9.31692 3.02849 6.00207C3.02849 2.68722 5.7043 0 9.00508 0ZM9.00508 1.62863C6.59994 1.62863 4.6502 3.58668 4.6502 6.00207C4.6502 8.41746 6.59994 10.3755 9.00508 10.3755C11.4102 10.3755 13.3599 8.41746 13.3599 6.00207C13.3599 3.58668 11.4102 1.62863 9.00508 1.62863Z" fill="#BDBDBD"/>
</svg>
